HIERARCHY
ROOT pelvis
{
  OFFSET 0 100 0
  CHANNELS 6 Xposition Yposition Zposition Zrotation Xrotation Yrotation
  JOINT pelvis_right_femur
  {
    OFFSET -10.78128 -3.44521 -0.5502486
    CHANNELS 3 Zrotation Xrotation Yrotation
    JOINT right_femur_tibia
    {
      OFFSET -0.8047443 -44.0398 -0.1307829
      CHANNELS 3 Zrotation Xrotation Yrotation
      JOINT right_tibia_foot
      {
        OFFSET 3.006224 -47.83518 -5
        CHANNELS 3 Zrotation Xrotation Yrotation
        End Site
        {
          OFFSET 0 -5 15
        }
      }
    }
  }
  JOINT pelvis_left_femur
  {
    OFFSET 10.78128 -3.44521 -0.5502486
    CHANNELS 3 Zrotation Xrotation Yrotation
    JOINT left_femur_tibia
    {
      OFFSET 0.8047443 -44.0398 -0.1307829
      CHANNELS 3 Zrotation Xrotation Yrotation
      JOINT left_tibia_foot
      {
        OFFSET -4.370144 -48.10324 -4.275266
        CHANNELS 3 Zrotation Xrotation Yrotation
        End Site
        {
          OFFSET 0 -5 15
        }
      }
    }
  }
  JOINT pelvis_spine1
  {
    OFFSET 0 6.468898 -3.129235
    CHANNELS 3 Zrotation Xrotation Yrotation
    JOINT spine1
    {
      OFFSET 0 23.15396 4.99043
      CHANNELS 3 Zrotation Xrotation Yrotation
      JOINT spine2
      {
        OFFSET 0 20.79997 -5.064912
        CHANNELS 3 Zrotation Xrotation Yrotation
        JOINT neck
        {
          OFFSET 0 14.38658 9.616178
          CHANNELS 3 Zrotation Xrotation Yrotation
          End Site
          {
            OFFSET 0 20 0
          }
        }
      }
      JOINT right_manubrium
      {
        OFFSET -5.722621 16.35077 3.967754
        CHANNELS 3 Zrotation Xrotation Yrotation
        JOINT right_clavicle
        {
          OFFSET -13.16364 1.694482 -4.693211
          CHANNELS 3 Zrotation Xrotation Yrotation
          JOINT right_humerus
          {
            OFFSET -28.5034 -0.3100689 -2.792744
            CHANNELS 3 Zrotation Xrotation Yrotation
            JOINT right_radius
            {
              OFFSET -25.15693 0.02248979 -1.271978
              CHANNELS 3 Zrotation Xrotation Yrotation
              End Site
              {
                OFFSET -15 0 0
              }
            }
          }
        }
      }
      JOINT left_manubrium
      {
        OFFSET 5.722621 16.35077 3.967754
        CHANNELS 3 Zrotation Xrotation Yrotation
        JOINT left_clavicle
        {
          OFFSET 13.16364 1.694482 -4.693211
          CHANNELS 3 Zrotation Xrotation Yrotation
          JOINT left_humerus
          {
            OFFSET 29.39168 -1.063119 -2.237045
            CHANNELS 3 Zrotation Xrotation Yrotation
            JOINT left_radius
            {
              OFFSET 24.59957 -0.9528479 0.9047498
              CHANNELS 3 Zrotation Xrotation Yrotation
              End Site
              {
                OFFSET 15 -0 -0
              }
            }
          }
        }
      }
    }
  }
}
MOTION
Frames: 17
Frame Time: 0.0416666666667
-40.52968 101.4078 334.8286 -4.870988 -6.857047 -37.75936 5.584341 6.961376 0.5594771 -0 14.00519 -0 -14.67697 -3.11555 0.6280158 2.619718 -15.09653 0.2441333 -0 26.55469 -0 5.640804 0.5277654 14.44474 0.8445924 -3.986793 9.284051 0.4433524 18.98074 -7.535057 -1.140064 17.18274 4.052708 5.219253 -17.41678 -0.01181771 1.025681 -30.48849 13.89689 87.99332 18.93004 -15.08709 -0 0 28.5825 -21.07926 10.44226 9.935376 3.878504 -28.40473 -10.87558 -92.70713 2.168163 35.10697 0 0 -11.55735 12.58898 6.831829 -2.169876
-43.27949 101.412 340.2191 -4.968474 -6.786904 -38.58004 5.584341 6.961376 0.5594771 -0 14.00519 -0 -14.67697 -3.11555 0.6280158 2.619718 -15.09653 0.2441333 -0 26.55469 -0 5.640804 0.5277654 14.44474 0.8445924 -3.986793 9.284051 0.4433524 18.98074 -7.535057 -1.140064 17.18274 4.052708 5.219253 -17.41678 -0.01181771 1.025681 -30.48849 13.89689 87.99332 18.93004 -15.08709 -0 0 28.5825 -21.07926 10.44226 9.935376 3.878504 -28.40473 -10.87558 -92.70713 2.168163 35.10697 0 0 -11.55735 12.58898 6.831829 -2.169876
-46.10597 101.4162 345.5698 -5.064925 -6.715382 -39.40048 5.584341 6.961376 0.5594771 -0 14.00519 -0 -14.67697 -3.11555 0.6280158 2.619718 -15.09653 0.2441333 -0 26.55469 -0 5.640804 0.5277654 14.44474 0.8445924 -3.986793 9.284051 0.4433524 18.98074 -7.535057 -1.140064 17.18274 4.052708 5.219253 -17.41678 -0.01181771 1.025681 -30.48849 13.89689 87.99332 18.93004 -15.08709 -0 0 28.5825 -21.07926 10.44226 9.935376 3.878504 -28.40473 -10.87558 -92.70713 2.168163 35.10697 0 0 -11.55735 12.58898 6.831829 -2.169876
-49.00854 101.4205 350.8796 -5.16032 -6.642495 -40.22068 5.584341 6.961376 0.5594771 -0 14.00519 -0 -14.67697 -3.11555 0.6280158 2.619718 -15.09653 0.2441333 -0 26.55469 -0 5.640804 0.5277654 14.44474 0.8445924 -3.986793 9.284051 0.4433524 18.98074 -7.535057 -1.140064 17.18274 4.052708 5.219253 -17.41678 -0.01181771 1.025681 -30.48849 13.89689 87.99332 18.93004 -15.08709 -0 0 28.5825 -21.07926 10.44226 9.935376 3.878504 -28.40473 -10.87558 -92.70713 2.168163 35.10697 0 0 -11.55735 12.58898 6.831829 -2.169876
-51.9866 101.4247 356.1474 -5.254642 -6.568261 -41.04064 5.584341 6.961376 0.5594771 -0 14.00519 -0 -14.67697 -3.11555 0.6280158 2.619718 -15.09653 0.2441333 -0 26.55469 -0 5.640804 0.5277654 14.44474 0.8445924 -3.986793 9.284051 0.4433524 18.98074 -7.535057 -1.140064 17.18274 4.052708 5.219253 -17.41678 -0.01181771 1.025681 -30.48849 13.89689 87.99332 18.93004 -15.08709 -0 0 28.5825 -21.07926 10.44226 9.935376 3.878504 -28.40473 -10.87558 -92.70713 2.168163 35.10697 0 0 -11.55735 12.58898 6.831829 -2.169876
-55.03955 101.4289 361.3722 -5.34787 -6.492693 -41.86035 5.584341 6.961376 0.5594771 -0 14.00519 -0 -14.67697 -3.11555 0.6280158 2.619718 -15.09653 0.2441333 -0 26.55469 -0 5.640804 0.5277654 14.44474 0.8445924 -3.986793 9.284051 0.4433524 18.98074 -7.535057 -1.140064 17.18274 4.052708 5.219253 -17.41678 -0.01181771 1.025681 -30.48849 13.89689 87.99332 18.93004 -15.08709 -0 0 28.5825 -21.07926 10.44226 9.935376 3.878504 -28.40473 -10.87558 -92.70713 2.168163 35.10697 0 0 -11.55735 12.58898 6.831829 -2.169876
-58.16678 101.4331 366.5529 -5.439987 -6.415808 -42.67981 5.584341 6.961376 0.5594771 -0 14.00519 -0 -14.67697 -3.11555 0.6280158 2.619718 -15.09653 0.2441333 -0 26.55469 -0 5.640804 0.5277654 14.44474 0.8445924 -3.986793 9.284051 0.4433524 18.98074 -7.535057 -1.140064 17.18274 4.052708 5.219253 -17.41678 -0.01181771 1.025681 -30.48849 13.89689 87.99332 18.93004 -15.08709 -0 0 28.5825 -21.07926 10.44226 9.935376 3.878504 -28.40473 -10.87558 -92.70713 2.168163 35.10697 0 0 -11.55735 12.58898 6.831829 -2.169876
-61.36764 101.4373 371.6884 -5.530974 -6.337621 -43.49902 5.584341 6.961376 0.5594771 -0 14.00519 -0 -14.67697 -3.11555 0.6280158 2.619718 -15.09653 0.2441333 -0 26.55469 -0 5.640804 0.5277654 14.44474 0.8445924 -3.986793 9.284051 0.4433524 18.98074 -7.535057 -1.140064 17.18274 4.052708 5.219253 -17.41678 -0.01181771 1.025681 -30.48849 13.89689 87.99332 18.93004 -15.08709 -0 0 28.5825 -21.07926 10.44226 9.935376 3.878504 -28.40473 -10.87558 -92.70713 2.168163 35.10697 0 0 -11.55735 12.58898 6.831829 -2.169876
-64.64147 101.4415 376.7777 -5.620814 -6.258151 -44.31798 5.584341 6.961376 0.5594771 -0 14.00519 -0 -14.67697 -3.11555 0.6280158 2.619718 -15.09653 0.2441333 -0 26.55469 -0 5.640804 0.5277654 14.44474 0.8445924 -3.986793 9.284051 0.4433524 18.98074 -7.535057 -1.140064 17.18274 4.052708 5.219253 -17.41678 -0.01181771 1.025681 -30.48849 13.89689 87.99332 18.93004 -15.08709 -0 0 28.5825 -21.07926 10.44226 9.935376 3.878504 -28.40473 -10.87558 -92.70713 2.168163 35.10697 0 0 -11.55735 12.58898 6.831829 -2.169876
-67.98762 101.4458 381.8197 -5.709488 -6.177412 -45.13669 5.584341 6.961376 0.5594771 -0 14.00519 -0 -14.67697 -3.11555 0.6280158 2.619718 -15.09653 0.2441333 -0 26.55469 -0 5.640804 0.5277654 14.44474 0.8445924 -3.986793 9.284051 0.4433524 18.98074 -7.535057 -1.140064 17.18274 4.052708 5.219253 -17.41678 -0.01181771 1.025681 -30.48849 13.89689 87.99332 18.93004 -15.08709 -0 0 28.5825 -21.07926 10.44226 9.935376 3.878504 -28.40473 -10.87558 -92.70713 2.168163 35.10697 0 0 -11.55735 12.58898 6.831829 -2.169876
-71.4054 101.45 386.8135 -5.796979 -6.095422 -45.95514 5.584341 6.961376 0.5594771 -0 14.00519 -0 -14.67697 -3.11555 0.6280158 2.619718 -15.09653 0.2441333 -0 26.55469 -0 5.640804 0.5277654 14.44474 0.8445924 -3.986793 9.284051 0.4433524 18.98074 -7.535057 -1.140064 17.18274 4.052708 5.219253 -17.41678 -0.01181771 1.025681 -30.48849 13.89689 87.99332 18.93004 -15.08709 -0 0 28.5825 -21.07926 10.44226 9.935376 3.878504 -28.40473 -10.87558 -92.70713 2.168163 35.10697 0 0 -11.55735 12.58898 6.831829 -2.169876
-74.89412 101.4542 391.758 -5.883271 -6.012198 -46.77335 5.584341 6.961376 0.5594771 -0 14.00519 -0 -14.67697 -3.11555 0.6280158 2.619718 -15.09653 0.2441333 -0 26.55469 -0 5.640804 0.5277654 14.44474 0.8445924 -3.986793 9.284051 0.4433524 18.98074 -7.535057 -1.140064 17.18274 4.052708 5.219253 -17.41678 -0.01181771 1.025681 -30.48849 13.89689 87.99332 18.93004 -15.08709 -0 0 28.5825 -21.07926 10.44226 9.935376 3.878504 -28.40473 -10.87558 -92.70713 2.168163 35.10697 0 0 -11.55735 12.58898 6.831829 -2.169876
-78.45306 101.4584 396.6521 -5.968345 -5.927758 -47.5913 5.584341 6.961376 0.5594771 -0 14.00519 -0 -14.67697 -3.11555 0.6280158 2.619718 -15.09653 0.2441333 -0 26.55469 -0 5.640804 0.5277654 14.44474 0.8445924 -3.986793 9.284051 0.4433524 18.98074 -7.535057 -1.140064 17.18274 4.052708 5.219253 -17.41678 -0.01181771 1.025681 -30.48849 13.89689 87.99332 18.93004 -15.08709 -0 0 28.5825 -21.07926 10.44226 9.935376 3.878504 -28.40473 -10.87558 -92.70713 2.168163 35.10697 0 0 -11.55735 12.58898 6.831829 -2.169876
-82.08149 101.4626 401.495 -6.052186 -5.842118 -48.409 5.584341 6.961376 0.5594771 -0 14.00519 -0 -14.67697 -3.11555 0.6280158 2.619718 -15.09653 0.2441333 -0 26.55469 -0 5.640804 0.5277654 14.44474 0.8445924 -3.986793 9.284051 0.4433524 18.98074 -7.535057 -1.140064 17.18274 4.052708 5.219253 -17.41678 -0.01181771 1.025681 -30.48849 13.89689 87.99332 18.93004 -15.08709 -0 0 28.5825 -21.07926 10.44226 9.935376 3.878504 -28.40473 -10.87558 -92.70713 2.168163 35.10697 0 0 -11.55735 12.58898 6.831829 -2.169876
-85.77869 101.4668 406.2856 -6.134778 -5.755297 -49.22645 5.584341 6.961376 0.5594771 -0 14.00519 -0 -14.67697 -3.11555 0.6280158 2.619718 -15.09653 0.2441333 -0 26.55469 -0 5.640804 0.5277654 14.44474 0.8445924 -3.986793 9.284051 0.4433524 18.98074 -7.535057 -1.140064 17.18274 4.052708 5.219253 -17.41678 -0.01181771 1.025681 -30.48849 13.89689 87.99332 18.93004 -15.08709 -0 0 28.5825 -21.07926 10.44226 9.935376 3.878504 -28.40473 -10.87558 -92.70713 2.168163 35.10697 0 0 -11.55735 12.58898 6.831829 -2.169876
-89.54389 101.471 411.0229 -6.216104 -5.667312 -50.04365 5.584341 6.961376 0.5594771 -0 14.00519 -0 -14.67697 -3.11555 0.6280158 2.619718 -15.09653 0.2441333 -0 26.55469 -0 5.640804 0.5277654 14.44474 0.8445924 -3.986793 9.284051 0.4433524 18.98074 -7.535057 -1.140064 17.18274 4.052708 5.219253 -17.41678 -0.01181771 1.025681 -30.48849 13.89689 87.99332 18.93004 -15.08709 -0 0 28.5825 -21.07926 10.44226 9.935376 3.878504 -28.40473 -10.87558 -92.70713 2.168163 35.10697 0 0 -11.55735 12.58898 6.831829 -2.169876
-93.37633 101.4753 415.706 -6.296148 -5.578183 -50.8606 5.584341 6.961376 0.5594771 -0 14.00519 -0 -14.67697 -3.11555 0.6280158 2.619718 -15.09653 0.2441333 -0 26.55469 -0 5.640804 0.5277654 14.44474 0.8445924 -3.986793 9.284051 0.4433524 18.98074 -7.535057 -1.140064 17.18274 4.052708 5.219253 -17.41678 -0.01181771 1.025681 -30.48849 13.89689 87.99332 18.93004 -15.08709 -0 0 28.5825 -21.07926 10.44226 9.935376 3.878504 -28.40473 -10.87558 -92.70713 2.168163 35.10697 0 0 -11.55735 12.58898 6.831829 -2.169876
